<svg width="200" height="182" viewBox="0 0 200 182" fill="none" xmlns="http://www.w3.org/2000/svg">
<g clip-path="url(#clip0_6_3)">
<rect width="200" height="182" rx="34" fill="#466EFF" fill-opacity="0.25"/>
<path d="M58 134C61.2987 75.7671 74.8622 54.0908 127.521 40.6433M73 143C126.409 122.685 139.398 101.132 136.623 47.0764M56.479 49.3567C112.925 55.1989 134.518 68.9495 150 119M47.5394 59.6945C64.8053 117.939 87.4217 134.37 144.636 127.057M160 91C160 123.585 132.242 150 98 150C63.7583 150 36 123.585 36 91C36 58.4152 63.7583 32 98 32C132.242 32 160 58.4152 160 91Z" stroke="#466EFF" stroke-width="10"/>
</g>
<defs>
<clipPath id="clip0_6_3">
<rect width="200" height="182" rx="34" fill="white"/>
</clipPath>
</defs>
</svg>
