<svg width="69" height="62" viewBox="0 0 69 62" fill="none" xmlns="http://www.w3.org/2000/svg">
<path d="M0 17C0 7.61116 7.61116 0 17 0H52C61.3888 0 69 7.61116 69 17V45C69 54.3888 61.3888 62 52 62H17C7.61116 62 0 54.3888 0 45V17Z" fill="#FFE4E9"/>
<path d="M22.9465 18.2105C22.9465 15.8851 23.7175 14 24.6684 14H56.2781C57.2291 14 58 15.8851 58 18.2105C58 20.5359 57.2291 22.4211 56.2781 22.4211H24.6684C23.7175 22.4211 22.9465 20.5359 22.9465 18.2105Z" fill="#FF4066"/>
<path d="M23.8075 30.2406C18.0267 21.8195 18.3957 14 23.8075 14L26.5134 14V22.4211C22.8251 22.7032 21.4247 22.4479 23.8075 30.2406Z" fill="#FF4066"/>
<path d="M18.7812 29.9398C18.7812 27.6144 19.5522 25.7293 20.5031 25.7293H52.1128C53.0638 25.7293 53.8347 27.6144 53.8347 29.9398C53.8347 32.2653 53.0638 34.1504 52.1128 34.1504H20.5031C19.5522 34.1504 18.7812 32.2653 18.7812 29.9398Z" fill="#FF4066"/>
<path d="M19.6422 41.9699C13.8614 33.5489 14.2304 25.7293 19.6422 25.7293H22.3481V34.1504C18.6598 34.4325 17.2594 34.1772 19.6422 41.9699Z" fill="#FF4066"/>
<path d="M15.3374 41.9699C15.3374 39.6445 16.1083 37.7594 17.0593 37.7594H48.6689C49.6199 37.7594 50.3908 39.6445 50.3908 41.9699C50.3908 44.2953 49.6199 46.1805 48.6689 46.1805H17.0593C16.1083 46.1805 15.3374 44.2953 15.3374 41.9699Z" fill="#FF4066"/>
<path d="M16.1983 54C10.4176 45.5789 10.7866 37.7594 16.1983 37.7594H18.9042V46.1805C15.2159 46.4626 13.8155 46.2073 16.1983 54Z" fill="#FF4066"/>
</svg>
