<svg width="87" height="89" viewBox="0 0 87 89" fill="none" xmlns="http://www.w3.org/2000/svg">
<path d="M0 20C0 8.95431 8.95431 0 20 0H67C78.0457 0 87 8.95431 87 20V69C87 80.0457 78.0457 89 67 89H20C8.9543 89 0 80.0457 0 69V20Z" fill="#CAC300" fill-opacity="0.27"/>
<path d="M34.808 45.56C34.808 48.7173 35.4907 51.448 36.856 53.752C38.2213 55.9707 40.0987 57.72 42.488 59C44.9627 60.28 47.608 60.92 50.424 60.92C52.8133 60.92 55.0747 60.5787 57.208 59.896C59.4267 59.128 61.432 58.104 63.224 56.824C65.1013 55.544 66.6373 53.9653 67.832 52.088V70.904C65.784 72.5253 63.224 73.848 60.152 74.872C57.08 75.8107 53.3253 76.28 48.888 76.28C42.4027 76.28 36.5573 75 31.352 72.44C26.232 69.88 22.1787 66.296 19.192 61.688C16.2907 57.08 14.84 51.704 14.84 45.56C14.84 39.3307 16.2907 33.9547 19.192 29.432C22.1787 24.824 26.232 21.24 31.352 18.68C36.5573 16.12 42.4027 14.84 48.888 14.84C53.3253 14.84 57.08 15.352 60.152 16.376C63.224 17.3147 65.784 18.5093 67.832 19.96V38.904C66.6373 37.0267 65.0587 35.448 63.096 34.168C61.2187 32.888 59.1707 31.9067 56.952 31.224C54.7333 30.5413 52.5573 30.2 50.424 30.2C47.608 30.2 44.9627 30.8827 42.488 32.248C40.0987 33.6133 38.2213 35.448 36.856 37.752C35.4907 40.056 34.808 42.6587 34.808 45.56Z" fill="#CAC300"/>
</svg>
