<svg width="88" height="95" viewBox="0 0 88 95" fill="none" xmlns="http://www.w3.org/2000/svg">
<path d="M0 25C0 11.1929 11.1929 0 25 0H63C76.8071 0 88 11.1929 88 25V70C88 83.8071 76.8071 95 63 95H25C11.1929 95 0 83.8071 0 70V25Z" fill="#24D848" fill-opacity="0.16"/>
<path d="M57.48 37.1071C61.6233 41.5501 61.2165 48.6634 56.5715 52.9949C51.9264 57.3265 44.8021 57.2361 40.6589 52.793C36.5157 48.35 36.9225 41.2367 41.5675 36.9052C46.2125 32.5736 53.3368 32.664 57.48 37.1071Z" fill="#24D848"/>
<path d="M36.5616 56.0122C38.7149 58.3213 41.0765 59.8528 43.6464 60.6067C46.1581 61.2982 48.7241 61.2972 51.3445 60.6038C54.0273 59.8522 56.3985 58.5162 58.458 56.5957C60.2054 54.9661 61.6265 53.1743 62.7211 51.2201C63.82 49.1453 64.5882 47.0287 65.0258 44.8705C65.5259 42.654 65.5726 40.4519 65.166 38.2641L77.9984 52.0253C77.6064 54.6078 76.6362 57.321 75.0878 60.165C73.4813 62.9466 71.0553 65.8506 67.8101 68.8768C63.067 73.2998 57.9191 76.3502 52.3662 78.0279C46.8758 79.6475 41.4671 79.7907 36.1401 78.4575C30.8755 77.0661 26.1482 74.1237 21.958 69.6303C17.7096 65.0745 15.1041 60.1533 14.1416 54.867C13.1832 49.46 13.7034 44.0745 15.702 38.7104C17.763 33.2881 21.165 28.3654 25.9081 23.9424C29.1534 20.9162 32.2486 18.73 35.1936 17.3838C38.0805 15.9752 40.7675 15.103 43.2547 14.7672L56.1745 28.622C54.0204 28.0637 51.7892 27.9858 49.4809 28.3882C47.2349 28.7324 45.0678 29.4114 42.9796 30.4253C40.8914 31.4392 39.0672 32.6736 37.507 34.1285C35.4475 36.049 33.9784 38.3524 33.0997 41.0386C32.2834 43.6667 32.1616 46.2888 32.7344 48.905C33.3072 51.5212 34.5829 53.8903 36.5616 56.0122Z" fill="#24D848"/>
</svg>
